<mxfile host="65bd71144e">
    <diagram id="I69AOmMnSuo84_iWV33W" name="Page-2">
        <mxGraphModel dx="1026" dy="477" grid="1" gridSize="10" guides="1" tooltips="1" connect="1" arrows="1" fold="1" page="1" pageScale="1" pageWidth="850" pageHeight="1100" math="0" shadow="0">
            <root>
                <mxCell id="4GlArxByPL84lToK0pTY-0"/>
                <mxCell id="4GlArxByPL84lToK0pTY-1" parent="4GlArxByPL84lToK0pTY-0"/>
                <mxCell id="4GlArxByPL84lToK0pTY-37" style="edgeStyle=none;html=1;" parent="4GlArxByPL84lToK0pTY-1" source="4GlArxByPL84lToK0pTY-2" target="4GlArxByPL84lToK0pTY-3" edge="1">
                    <mxGeometry relative="1" as="geometry"/>
                </mxCell>
                <mxCell id="JozoGciPR7f1C51PBZkU-3" style="edgeStyle=none;html=1;exitX=1;exitY=0.75;exitDx=0;exitDy=0;entryX=0.832;entryY=1.009;entryDx=0;entryDy=0;entryPerimeter=0;" parent="4GlArxByPL84lToK0pTY-1" source="4GlArxByPL84lToK0pTY-2" target="4GlArxByPL84lToK0pTY-38" edge="1">
                    <mxGeometry relative="1" as="geometry">
                        <mxPoint x="280" y="1040" as="targetPoint"/>
                        <Array as="points">
                            <mxPoint x="820" y="440"/>
                            <mxPoint x="820" y="1040"/>
                            <mxPoint x="280" y="1040"/>
                        </Array>
                    </mxGeometry>
                </mxCell>
                <mxCell id="4GlArxByPL84lToK0pTY-2" value="Message&lt;br&gt;&lt;div style=&quot;text-align: left&quot;&gt;&lt;span&gt;{message_id=&quot;INT&quot;,&lt;/span&gt;&lt;/div&gt;&lt;div style=&quot;text-align: left&quot;&gt;&lt;span&gt;message_type=&quot;STRING&quot;,&lt;/span&gt;&lt;/div&gt;&lt;div style=&quot;text-align: left&quot;&gt;&lt;span&gt;message_context=&quot;STRING&quot;,&lt;/span&gt;&lt;/div&gt;&lt;div style=&quot;text-align: left&quot;&gt;&lt;span&gt;message_timestame=&quot;STRING&quot;,&lt;/span&gt;&lt;/div&gt;&lt;div style=&quot;text-align: left&quot;&gt;&lt;span&gt;message_timestampEdited=&quot;STRING&quot;}&lt;/span&gt;&lt;/div&gt;" style="text;html=1;fillColor=none;align=center;verticalAlign=middle;whiteSpace=wrap;rounded=0;strokeColor=#f0f0f0;" parent="4GlArxByPL84lToK0pTY-1" vertex="1">
                    <mxGeometry x="400" y="320" width="240" height="160" as="geometry"/>
                </mxCell>
                <mxCell id="JozoGciPR7f1C51PBZkU-0" style="edgeStyle=none;html=1;exitX=0;exitY=0.5;exitDx=0;exitDy=0;entryX=0.701;entryY=1.047;entryDx=0;entryDy=0;entryPerimeter=0;" parent="4GlArxByPL84lToK0pTY-1" source="4GlArxByPL84lToK0pTY-3" target="4GlArxByPL84lToK0pTY-7" edge="1">
                    <mxGeometry relative="1" as="geometry">
                        <mxPoint x="198" y="190" as="targetPoint"/>
                        <Array as="points">
                            <mxPoint x="198" y="480"/>
                        </Array>
                    </mxGeometry>
                </mxCell>
                <mxCell id="4GlArxByPL84lToK0pTY-3" value="User&lt;br&gt;&lt;div style=&quot;text-align: left&quot;&gt;&lt;span&gt;{user_id=&quot;INT&quot;,&lt;/span&gt;&lt;/div&gt;&lt;div style=&quot;text-align: left&quot;&gt;&lt;span&gt;user_name=&quot;STRING&quot;,&lt;/span&gt;&lt;/div&gt;&lt;span&gt;&lt;div style=&quot;text-align: left&quot;&gt;&lt;span&gt;user_discriminator=&quot;STRING&quot;,&lt;/span&gt;&lt;/div&gt;&lt;div style=&quot;text-align: left&quot;&gt;&lt;span&gt;user_color=&quot;STRING&quot;,&lt;/span&gt;&lt;/div&gt;&lt;div style=&quot;text-align: left&quot;&gt;&lt;span&gt;&quot;user_isBot=&quot;BOOL&quot;,&lt;/span&gt;&lt;/div&gt;&lt;div style=&quot;text-align: left&quot;&gt;&lt;span&gt;&quot;user_avatarURL=&quot;STRING&quot;}&lt;/span&gt;&lt;/div&gt;&lt;/span&gt;" style="text;html=1;fillColor=none;align=center;verticalAlign=middle;whiteSpace=wrap;rounded=0;strokeColor=#f0f0f0;" parent="4GlArxByPL84lToK0pTY-1" vertex="1">
                    <mxGeometry x="400" y="720" width="240" height="120" as="geometry"/>
                </mxCell>
                <mxCell id="4GlArxByPL84lToK0pTY-4" value=":MessageFrom" style="text;html=1;align=center;verticalAlign=middle;whiteSpace=wrap;rounded=0;strokeColor=#f0f0f0;movable=0;resizable=0;rotatable=0;deletable=0;editable=0;connectable=0;" parent="4GlArxByPL84lToK0pTY-1" vertex="1">
                    <mxGeometry x="640" y="510" width="110" height="20" as="geometry"/>
                </mxCell>
                <mxCell id="4GlArxByPL84lToK0pTY-5" value=":ReactionToMessage&lt;br&gt;{num_reaction:&quot;INT&quot;}" style="text;html=1;fillColor=none;align=center;verticalAlign=middle;whiteSpace=wrap;rounded=0;strokeColor=#f0f0f0;" parent="4GlArxByPL84lToK0pTY-1" vertex="1">
                    <mxGeometry x="50" y="670" width="160" height="40" as="geometry"/>
                </mxCell>
                <mxCell id="4GlArxByPL84lToK0pTY-6" value=":MessageMention" style="text;html=1;fillColor=none;align=center;verticalAlign=middle;whiteSpace=wrap;rounded=0;strokeColor=#f0f0f0;" parent="4GlArxByPL84lToK0pTY-1" vertex="1">
                    <mxGeometry x="520" y="510" width="110" height="20" as="geometry"/>
                </mxCell>
                <mxCell id="4GlArxByPL84lToK0pTY-7" value=":Guild&lt;br&gt;&lt;div style=&quot;text-align: left&quot;&gt;&lt;span&gt;{guild_id=&quot;INT&quot;,&lt;/span&gt;&lt;/div&gt;&lt;div style=&quot;text-align: left&quot;&gt;&lt;span&gt;guild_name=&quot;STRING&quot;,&lt;/span&gt;&lt;/div&gt;&lt;div style=&quot;text-align: left&quot;&gt;&lt;span&gt;guild_iconUrl=&quot;STRING&quot;}&lt;/span&gt;&lt;/div&gt;" style="text;html=1;fillColor=none;align=center;verticalAlign=middle;whiteSpace=wrap;rounded=0;strokeColor=#f0f0f0;" parent="4GlArxByPL84lToK0pTY-1" vertex="1">
                    <mxGeometry x="80" y="120" width="170" height="60" as="geometry"/>
                </mxCell>
                <mxCell id="4GlArxByPL84lToK0pTY-8" value="Channel&lt;br&gt;&lt;div style=&quot;text-align: left&quot;&gt;&lt;span&gt;{channel_id=&quot;INT&quot;,&lt;/span&gt;&lt;/div&gt;&lt;div style=&quot;text-align: left&quot;&gt;&lt;span&gt;channel_type=&quot;STRING&quot;,&lt;/span&gt;&lt;/div&gt;&lt;div style=&quot;text-align: left&quot;&gt;&lt;span&gt;channel_name=&quot;STRING&quot;,&lt;/span&gt;&lt;/div&gt;&lt;div style=&quot;text-align: left&quot;&gt;&lt;span&gt;&quot;channel_topic&quot;=&quot;STRING&quot;}&lt;/span&gt;&lt;/div&gt;" style="text;html=1;fillColor=none;align=center;verticalAlign=middle;whiteSpace=wrap;rounded=0;strokeColor=#f0f0f0;" parent="4GlArxByPL84lToK0pTY-1" vertex="1">
                    <mxGeometry x="400" y="120" width="240" height="120" as="geometry"/>
                </mxCell>
                <mxCell id="4GlArxByPL84lToK0pTY-9" value=":ChannelJoin" style="text;html=1;fillColor=none;align=center;verticalAlign=middle;whiteSpace=wrap;rounded=0;strokeColor=#f0f0f0;" parent="4GlArxByPL84lToK0pTY-1" vertex="1">
                    <mxGeometry x="690" y="200" width="80" height="20" as="geometry"/>
                </mxCell>
                <mxCell id="4GlArxByPL84lToK0pTY-11" value="" style="endArrow=classic;html=1;exitX=0;exitY=1;exitDx=0;exitDy=0;entryX=0.25;entryY=0;entryDx=0;entryDy=0;" parent="4GlArxByPL84lToK0pTY-1" source="4GlArxByPL84lToK0pTY-2" target="4GlArxByPL84lToK0pTY-3" edge="1">
                    <mxGeometry width="50" height="50" relative="1" as="geometry">
                        <mxPoint x="430" y="380" as="sourcePoint"/>
                        <mxPoint x="440" y="680" as="targetPoint"/>
                        <Array as="points">
                            <mxPoint x="400" y="640"/>
                            <mxPoint x="460" y="640"/>
                        </Array>
                    </mxGeometry>
                </mxCell>
                <mxCell id="4GlArxByPL84lToK0pTY-12" value="" style="endArrow=classic;html=1;entryX=1;entryY=1;entryDx=0;entryDy=0;exitX=1;exitY=0;exitDx=0;exitDy=0;" parent="4GlArxByPL84lToK0pTY-1" source="4GlArxByPL84lToK0pTY-3" target="4GlArxByPL84lToK0pTY-2" edge="1">
                    <mxGeometry width="50" height="50" relative="1" as="geometry">
                        <mxPoint x="550" y="390" as="sourcePoint"/>
                        <mxPoint x="600" y="340" as="targetPoint"/>
                    </mxGeometry>
                </mxCell>
                <mxCell id="4GlArxByPL84lToK0pTY-13" value="" style="endArrow=classic;html=1;exitX=1;exitY=0.25;exitDx=0;exitDy=0;entryX=1;entryY=0.25;entryDx=0;entryDy=0;" parent="4GlArxByPL84lToK0pTY-1" source="4GlArxByPL84lToK0pTY-3" target="4GlArxByPL84lToK0pTY-8" edge="1">
                    <mxGeometry width="50" height="50" relative="1" as="geometry">
                        <mxPoint x="630" y="180" as="sourcePoint"/>
                        <mxPoint x="680" y="130" as="targetPoint"/>
                        <Array as="points">
                            <mxPoint x="770" y="740"/>
                            <mxPoint x="770" y="150"/>
                        </Array>
                    </mxGeometry>
                </mxCell>
                <mxCell id="4GlArxByPL84lToK0pTY-14" value="" style="endArrow=classic;html=1;entryX=0.75;entryY=0;entryDx=0;entryDy=0;exitX=0.75;exitY=1;exitDx=0;exitDy=0;" parent="4GlArxByPL84lToK0pTY-1" source="4GlArxByPL84lToK0pTY-8" target="4GlArxByPL84lToK0pTY-2" edge="1">
                    <mxGeometry width="50" height="50" relative="1" as="geometry">
                        <mxPoint x="530" y="220" as="sourcePoint"/>
                        <mxPoint x="580" y="170" as="targetPoint"/>
                    </mxGeometry>
                </mxCell>
                <mxCell id="4GlArxByPL84lToK0pTY-15" value=":ChannelMessage" style="text;html=1;fillColor=none;align=center;verticalAlign=middle;whiteSpace=wrap;rounded=0;strokeColor=#f0f0f0;" parent="4GlArxByPL84lToK0pTY-1" vertex="1">
                    <mxGeometry x="580" y="260" width="125" height="20" as="geometry"/>
                </mxCell>
                <mxCell id="4GlArxByPL84lToK0pTY-16" value=":MemberOf" style="text;html=1;fillColor=none;align=center;verticalAlign=middle;whiteSpace=wrap;rounded=0;strokeColor=#f0f0f0;" parent="4GlArxByPL84lToK0pTY-1" vertex="1">
                    <mxGeometry x="280" y="260" width="80" height="20" as="geometry"/>
                </mxCell>
                <mxCell id="4GlArxByPL84lToK0pTY-17" value=":ChannelOf" style="text;html=1;fillColor=none;align=center;verticalAlign=middle;whiteSpace=wrap;rounded=0;strokeColor=#f0f0f0;" parent="4GlArxByPL84lToK0pTY-1" vertex="1">
                    <mxGeometry x="270" y="130" width="110" height="20" as="geometry"/>
                </mxCell>
                <mxCell id="4GlArxByPL84lToK0pTY-19" value=":Reply" style="text;html=1;fillColor=none;align=center;verticalAlign=middle;whiteSpace=wrap;rounded=0;strokeColor=#f0f0f0;" parent="4GlArxByPL84lToK0pTY-1" vertex="1">
                    <mxGeometry x="670" y="350" width="60" height="20" as="geometry"/>
                </mxCell>
                <mxCell id="4GlArxByPL84lToK0pTY-20" value="" style="endArrow=classic;html=1;exitX=0;exitY=0.25;exitDx=0;exitDy=0;entryX=1;entryY=0.5;entryDx=0;entryDy=0;" parent="4GlArxByPL84lToK0pTY-1" source="4GlArxByPL84lToK0pTY-8" target="4GlArxByPL84lToK0pTY-7" edge="1">
                    <mxGeometry width="50" height="50" relative="1" as="geometry">
                        <mxPoint x="230" y="180" as="sourcePoint"/>
                        <mxPoint x="310" y="180" as="targetPoint"/>
                    </mxGeometry>
                </mxCell>
                <mxCell id="4GlArxByPL84lToK0pTY-21" value="" style="endArrow=classic;html=1;exitX=0;exitY=0.25;exitDx=0;exitDy=0;entryX=1;entryY=1;entryDx=0;entryDy=0;" parent="4GlArxByPL84lToK0pTY-1" source="4GlArxByPL84lToK0pTY-3" target="4GlArxByPL84lToK0pTY-7" edge="1">
                    <mxGeometry width="50" height="50" relative="1" as="geometry">
                        <mxPoint x="180" y="280" as="sourcePoint"/>
                        <mxPoint x="200" y="170" as="targetPoint"/>
                        <Array as="points">
                            <mxPoint x="280" y="300"/>
                            <mxPoint x="280" y="230"/>
                        </Array>
                    </mxGeometry>
                </mxCell>
                <mxCell id="JozoGciPR7f1C51PBZkU-2" style="edgeStyle=none;html=1;exitX=0.5;exitY=0;exitDx=0;exitDy=0;entryX=0.5;entryY=1;entryDx=0;entryDy=0;" parent="4GlArxByPL84lToK0pTY-1" source="4GlArxByPL84lToK0pTY-22" target="4GlArxByPL84lToK0pTY-3" edge="1">
                    <mxGeometry relative="1" as="geometry"/>
                </mxCell>
                <mxCell id="4GlArxByPL84lToK0pTY-22" value="Attachment&lt;br&gt;&lt;div style=&quot;text-align: left&quot;&gt;&lt;span&gt;{attachment_id=&quot;STRING&quot;,&lt;/span&gt;&lt;/div&gt;&lt;div style=&quot;text-align: left&quot;&gt;&lt;span&gt;attachment_url=&quot;STRING&quot;,&lt;/span&gt;&lt;/div&gt;&lt;div style=&quot;text-align: left&quot;&gt;&lt;span&gt;&quot;fileName&quot;=&quot;STRING&quot;,&lt;/span&gt;&lt;/div&gt;&lt;div style=&quot;text-align: left&quot;&gt;&lt;span&gt;&quot;size_in_bytes&quot;=&quot;INT&quot;}&lt;/span&gt;&lt;/div&gt;" style="text;html=1;fillColor=none;align=center;verticalAlign=middle;whiteSpace=wrap;rounded=0;strokeColor=#f0f0f0;" parent="4GlArxByPL84lToK0pTY-1" vertex="1">
                    <mxGeometry x="400" y="900" width="240" height="80" as="geometry"/>
                </mxCell>
                <mxCell id="4GlArxByPL84lToK0pTY-39" style="edgeStyle=none;html=1;entryX=0;entryY=0.75;entryDx=0;entryDy=0;exitX=0.75;exitY=0;exitDx=0;exitDy=0;" parent="4GlArxByPL84lToK0pTY-1" source="4GlArxByPL84lToK0pTY-23" target="4GlArxByPL84lToK0pTY-2" edge="1">
                    <mxGeometry relative="1" as="geometry">
                        <mxPoint x="200" y="720" as="sourcePoint"/>
                        <Array as="points">
                            <mxPoint x="210" y="540"/>
                        </Array>
                    </mxGeometry>
                </mxCell>
                <mxCell id="4GlArxByPL84lToK0pTY-23" value="Reaction&lt;br&gt;{emoji_id=&quot;STRING&quot;&lt;br&gt;isAnimated=&quot;BOOL&quot;,&lt;br&gt;imageUrl=&quot;STRING&quot;}" style="text;html=1;fillColor=none;align=center;verticalAlign=middle;whiteSpace=wrap;rounded=0;strokeColor=#f0f0f0;" parent="4GlArxByPL84lToK0pTY-1" vertex="1">
                    <mxGeometry x="30" y="750" width="240" height="80" as="geometry"/>
                </mxCell>
                <mxCell id="4GlArxByPL84lToK0pTY-24" value="" style="endArrow=classic;html=1;exitX=1;exitY=0.5;exitDx=0;exitDy=0;entryX=1;entryY=0.5;entryDx=0;entryDy=0;" parent="4GlArxByPL84lToK0pTY-1" source="4GlArxByPL84lToK0pTY-2" target="4GlArxByPL84lToK0pTY-22" edge="1">
                    <mxGeometry width="50" height="50" relative="1" as="geometry">
                        <mxPoint x="650" y="420" as="sourcePoint"/>
                        <mxPoint x="700" y="370" as="targetPoint"/>
                        <Array as="points">
                            <mxPoint x="800" y="400"/>
                            <mxPoint x="800" y="940"/>
                        </Array>
                    </mxGeometry>
                </mxCell>
                <mxCell id="4GlArxByPL84lToK0pTY-26" value=":Attaches" style="text;html=1;fillColor=none;align=center;verticalAlign=middle;whiteSpace=wrap;rounded=0;strokeColor=#f0f0f0;" parent="4GlArxByPL84lToK0pTY-1" vertex="1">
                    <mxGeometry x="740" y="810" width="60" height="20" as="geometry"/>
                </mxCell>
                <mxCell id="4GlArxByPL84lToK0pTY-27" value=":AttachmentsFrom" style="text;html=1;fillColor=none;align=center;verticalAlign=middle;whiteSpace=wrap;rounded=0;strokeColor=#f0f0f0;" parent="4GlArxByPL84lToK0pTY-1" vertex="1">
                    <mxGeometry x="520" y="860" width="120" height="20" as="geometry"/>
                </mxCell>
                <mxCell id="4GlArxByPL84lToK0pTY-28" value="" style="endArrow=classic;html=1;exitX=0;exitY=0.75;exitDx=0;exitDy=0;entryX=1;entryY=0.75;entryDx=0;entryDy=0;" parent="4GlArxByPL84lToK0pTY-1" source="4GlArxByPL84lToK0pTY-3" target="4GlArxByPL84lToK0pTY-23" edge="1">
                    <mxGeometry width="50" height="50" relative="1" as="geometry">
                        <mxPoint x="250" y="480" as="sourcePoint"/>
                        <mxPoint x="230" y="760" as="targetPoint"/>
                    </mxGeometry>
                </mxCell>
                <mxCell id="4GlArxByPL84lToK0pTY-29" value=":UserReactsTo&lt;br&gt;{EmojiID:STRING}" style="text;html=1;fillColor=none;align=center;verticalAlign=middle;whiteSpace=wrap;rounded=0;strokeColor=#f0f0f0;" parent="4GlArxByPL84lToK0pTY-1" vertex="1">
                    <mxGeometry x="400" y="510" width="110" height="50" as="geometry"/>
                </mxCell>
                <mxCell id="4GlArxByPL84lToK0pTY-31" value=":ReactsWith" style="text;html=1;fillColor=none;align=center;verticalAlign=middle;whiteSpace=wrap;rounded=0;strokeColor=#f0f0f0;" parent="4GlArxByPL84lToK0pTY-1" vertex="1">
                    <mxGeometry x="290" y="790" width="90" height="20" as="geometry"/>
                </mxCell>
                <mxCell id="4GlArxByPL84lToK0pTY-33" value="" style="endArrow=classic;html=1;exitX=0.25;exitY=1;exitDx=0;exitDy=0;" parent="4GlArxByPL84lToK0pTY-1" source="4GlArxByPL84lToK0pTY-8" edge="1">
                    <mxGeometry width="50" height="50" relative="1" as="geometry">
                        <mxPoint x="590" y="250" as="sourcePoint"/>
                        <mxPoint x="460" y="320" as="targetPoint"/>
                    </mxGeometry>
                </mxCell>
                <mxCell id="4GlArxByPL84lToK0pTY-34" value=":isPinned" style="text;html=1;fillColor=none;align=center;verticalAlign=middle;whiteSpace=wrap;rounded=0;strokeColor=#f0f0f0;" parent="4GlArxByPL84lToK0pTY-1" vertex="1">
                    <mxGeometry x="380" y="260" width="80" height="20" as="geometry"/>
                </mxCell>
                <mxCell id="JozoGciPR7f1C51PBZkU-6" style="edgeStyle=none;html=1;entryX=0;entryY=1;entryDx=0;entryDy=0;exitX=0.75;exitY=0;exitDx=0;exitDy=0;" parent="4GlArxByPL84lToK0pTY-1" source="4GlArxByPL84lToK0pTY-38" target="4GlArxByPL84lToK0pTY-3" edge="1">
                    <mxGeometry relative="1" as="geometry">
                        <Array as="points">
                            <mxPoint x="260" y="860"/>
                        </Array>
                    </mxGeometry>
                </mxCell>
                <mxCell id="4GlArxByPL84lToK0pTY-38" value="Embed&lt;br&gt;&lt;div style=&quot;text-align: left&quot;&gt;&lt;span&gt;{title=&quot;STRING&quot;,&lt;/span&gt;&lt;/div&gt;&lt;div style=&quot;text-align: left&quot;&gt;&lt;span&gt;url=&quot;STRING&quot;,&lt;/span&gt;&lt;/div&gt;&lt;div style=&quot;text-align: left&quot;&gt;&lt;span&gt;timestamp=&quot;INT&quot;,&lt;/span&gt;&lt;/div&gt;&lt;div style=&quot;text-align: left&quot;&gt;&lt;span&gt;description=&quot;STRING&quot;,&lt;/span&gt;&lt;/div&gt;&lt;div style=&quot;text-align: left&quot;&gt;&lt;span&gt;thumbnail_url=&quot;STRING&quot;}&lt;/span&gt;&lt;/div&gt;" style="text;html=1;fillColor=none;align=center;verticalAlign=middle;whiteSpace=wrap;rounded=0;strokeColor=#f0f0f0;" parent="4GlArxByPL84lToK0pTY-1" vertex="1">
                    <mxGeometry x="80" y="900" width="240" height="100" as="geometry"/>
                </mxCell>
                <mxCell id="JozoGciPR7f1C51PBZkU-1" value=":user_nickname&lt;br&gt;{user_nickname=&quot;STIRNG&quot;}" style="text;html=1;fillColor=none;align=center;verticalAlign=middle;whiteSpace=wrap;rounded=0;strokeColor=#f0f0f0;" parent="4GlArxByPL84lToK0pTY-1" vertex="1">
                    <mxGeometry x="20" y="280" width="180" height="60" as="geometry"/>
                </mxCell>
                <mxCell id="JozoGciPR7f1C51PBZkU-4" value=":Embeds" style="text;html=1;fillColor=none;align=center;verticalAlign=middle;whiteSpace=wrap;rounded=0;strokeColor=#f0f0f0;" parent="4GlArxByPL84lToK0pTY-1" vertex="1">
                    <mxGeometry x="350" y="1020" width="90" height="20" as="geometry"/>
                </mxCell>
                <mxCell id="JozoGciPR7f1C51PBZkU-5" value=":EmbedsFrom" style="text;html=1;fillColor=none;align=center;verticalAlign=middle;whiteSpace=wrap;rounded=0;strokeColor=#f0f0f0;" parent="4GlArxByPL84lToK0pTY-1" vertex="1">
                    <mxGeometry x="170" y="870" width="90" height="20" as="geometry"/>
                </mxCell>
            </root>
        </mxGraphModel>
    </diagram>
    <diagram id="4vB69krehJU-rh3B31mq" name="Page-1">
        <mxGraphModel dx="1026" dy="477" grid="1" gridSize="10" guides="1" tooltips="1" connect="1" arrows="1" fold="1" page="1" pageScale="1" pageWidth="850" pageHeight="1100" math="0" shadow="0">
            <root>
                <mxCell id="0"/>
                <mxCell id="1" parent="0"/>
                <mxCell id="2" value="Message" style="text;html=1;fillColor=none;align=center;verticalAlign=middle;whiteSpace=wrap;rounded=0;strokeColor=#f0f0f0;" parent="1" vertex="1">
                    <mxGeometry x="420" y="230" width="170" height="60" as="geometry"/>
                </mxCell>
                <mxCell id="3" value="User" style="text;html=1;fillColor=none;align=center;verticalAlign=middle;whiteSpace=wrap;rounded=0;strokeColor=#f0f0f0;" parent="1" vertex="1">
                    <mxGeometry x="420" y="400" width="170" height="60" as="geometry"/>
                </mxCell>
                <mxCell id="5" value=":From" style="text;html=1;align=center;verticalAlign=middle;whiteSpace=wrap;rounded=0;strokeColor=#f0f0f0;" parent="1" vertex="1">
                    <mxGeometry x="450" y="330" width="60" height="20" as="geometry"/>
                </mxCell>
                <mxCell id="7" value=":ReactionToMessage&lt;br&gt;{NumReaction:INT}" style="text;html=1;fillColor=none;align=center;verticalAlign=middle;whiteSpace=wrap;rounded=0;strokeColor=#f0f0f0;" parent="1" vertex="1">
                    <mxGeometry x="200" y="380" width="120" height="40" as="geometry"/>
                </mxCell>
                <mxCell id="9" value=":MessageMention" style="text;html=1;fillColor=none;align=center;verticalAlign=middle;whiteSpace=wrap;rounded=0;strokeColor=#f0f0f0;" parent="1" vertex="1">
                    <mxGeometry x="330" y="330" width="110" height="20" as="geometry"/>
                </mxCell>
                <mxCell id="10" value="Guild" style="text;html=1;fillColor=none;align=center;verticalAlign=middle;whiteSpace=wrap;rounded=0;strokeColor=#f0f0f0;" parent="1" vertex="1">
                    <mxGeometry x="100" y="110" width="170" height="60" as="geometry"/>
                </mxCell>
                <mxCell id="11" value="Channel" style="text;html=1;fillColor=none;align=center;verticalAlign=middle;whiteSpace=wrap;rounded=0;strokeColor=#f0f0f0;" parent="1" vertex="1">
                    <mxGeometry x="420" y="110" width="170" height="60" as="geometry"/>
                </mxCell>
                <mxCell id="16" value=":ChannelJoin" style="text;html=1;fillColor=none;align=center;verticalAlign=middle;whiteSpace=wrap;rounded=0;strokeColor=#f0f0f0;" parent="1" vertex="1">
                    <mxGeometry x="750" y="260" width="80" height="20" as="geometry"/>
                </mxCell>
                <mxCell id="17" value="" style="endArrow=classic;html=1;entryX=0.5;entryY=1;entryDx=0;entryDy=0;exitX=0.5;exitY=0;exitDx=0;exitDy=0;" parent="1" source="3" target="2" edge="1">
                    <mxGeometry width="50" height="50" relative="1" as="geometry">
                        <mxPoint x="480" y="400" as="sourcePoint"/>
                        <mxPoint x="530" y="350" as="targetPoint"/>
                    </mxGeometry>
                </mxCell>
                <mxCell id="18" value="" style="endArrow=classic;html=1;exitX=0.113;exitY=1.009;exitDx=0;exitDy=0;exitPerimeter=0;entryX=0.107;entryY=-0.036;entryDx=0;entryDy=0;entryPerimeter=0;" parent="1" source="2" target="3" edge="1">
                    <mxGeometry width="50" height="50" relative="1" as="geometry">
                        <mxPoint x="430" y="380" as="sourcePoint"/>
                        <mxPoint x="480" y="330" as="targetPoint"/>
                    </mxGeometry>
                </mxCell>
                <mxCell id="19" value="" style="endArrow=classic;html=1;entryX=0.75;entryY=1;entryDx=0;entryDy=0;exitX=0.75;exitY=0;exitDx=0;exitDy=0;" parent="1" source="3" target="2" edge="1">
                    <mxGeometry width="50" height="50" relative="1" as="geometry">
                        <mxPoint x="550" y="390" as="sourcePoint"/>
                        <mxPoint x="600" y="340" as="targetPoint"/>
                    </mxGeometry>
                </mxCell>
                <mxCell id="20" value="" style="endArrow=classic;html=1;exitX=1;exitY=0.75;exitDx=0;exitDy=0;entryX=1;entryY=0.25;entryDx=0;entryDy=0;" parent="1" source="3" target="11" edge="1">
                    <mxGeometry width="50" height="50" relative="1" as="geometry">
                        <mxPoint x="630" y="180" as="sourcePoint"/>
                        <mxPoint x="680" y="130" as="targetPoint"/>
                        <Array as="points">
                            <mxPoint x="750" y="445"/>
                            <mxPoint x="750" y="125"/>
                        </Array>
                    </mxGeometry>
                </mxCell>
                <mxCell id="22" value="" style="endArrow=classic;html=1;entryX=0.75;entryY=0;entryDx=0;entryDy=0;exitX=0.75;exitY=1;exitDx=0;exitDy=0;" parent="1" source="11" target="2" edge="1">
                    <mxGeometry width="50" height="50" relative="1" as="geometry">
                        <mxPoint x="530" y="220" as="sourcePoint"/>
                        <mxPoint x="580" y="170" as="targetPoint"/>
                    </mxGeometry>
                </mxCell>
                <mxCell id="23" value=":ChannelMessage" style="text;html=1;fillColor=none;align=center;verticalAlign=middle;whiteSpace=wrap;rounded=0;strokeColor=#f0f0f0;" parent="1" vertex="1">
                    <mxGeometry x="545" y="180" width="125" height="20" as="geometry"/>
                </mxCell>
                <mxCell id="25" value=":MemberOf" style="text;html=1;fillColor=none;align=center;verticalAlign=middle;whiteSpace=wrap;rounded=0;strokeColor=#f0f0f0;" parent="1" vertex="1">
                    <mxGeometry x="200" y="270" width="80" height="20" as="geometry"/>
                </mxCell>
                <mxCell id="27" value=":GuildChannel" style="text;html=1;fillColor=none;align=center;verticalAlign=middle;whiteSpace=wrap;rounded=0;strokeColor=#f0f0f0;" parent="1" vertex="1">
                    <mxGeometry x="290" y="120" width="110" height="20" as="geometry"/>
                </mxCell>
                <mxCell id="28" value="" style="endArrow=classic;html=1;exitX=1;exitY=0.25;exitDx=0;exitDy=0;entryX=1;entryY=0.75;entryDx=0;entryDy=0;" parent="1" source="2" target="2" edge="1">
                    <mxGeometry width="50" height="50" relative="1" as="geometry">
                        <mxPoint x="610" y="280" as="sourcePoint"/>
                        <mxPoint x="680" y="270" as="targetPoint"/>
                        <Array as="points">
                            <mxPoint x="680" y="245"/>
                            <mxPoint x="680" y="275"/>
                        </Array>
                    </mxGeometry>
                </mxCell>
                <mxCell id="29" value=":Reply" style="text;html=1;fillColor=none;align=center;verticalAlign=middle;whiteSpace=wrap;rounded=0;strokeColor=#f0f0f0;" parent="1" vertex="1">
                    <mxGeometry x="680" y="250" width="60" height="20" as="geometry"/>
                </mxCell>
                <mxCell id="30" value="" style="endArrow=classic;html=1;exitX=0;exitY=0.5;exitDx=0;exitDy=0;entryX=1;entryY=0.5;entryDx=0;entryDy=0;" parent="1" source="11" target="10" edge="1">
                    <mxGeometry width="50" height="50" relative="1" as="geometry">
                        <mxPoint x="230" y="180" as="sourcePoint"/>
                        <mxPoint x="310" y="180" as="targetPoint"/>
                    </mxGeometry>
                </mxCell>
                <mxCell id="32" value="" style="endArrow=classic;html=1;exitX=0;exitY=0.5;exitDx=0;exitDy=0;" parent="1" source="3" edge="1">
                    <mxGeometry width="50" height="50" relative="1" as="geometry">
                        <mxPoint x="180" y="280" as="sourcePoint"/>
                        <mxPoint x="200" y="170" as="targetPoint"/>
                        <Array as="points">
                            <mxPoint x="200" y="300"/>
                        </Array>
                    </mxGeometry>
                </mxCell>
                <mxCell id="33" value="Attachment" style="text;html=1;fillColor=none;align=center;verticalAlign=middle;whiteSpace=wrap;rounded=0;strokeColor=#f0f0f0;" parent="1" vertex="1">
                    <mxGeometry x="420" y="510" width="170" height="60" as="geometry"/>
                </mxCell>
                <mxCell id="34" value="Reaction" style="text;html=1;fillColor=none;align=center;verticalAlign=middle;whiteSpace=wrap;rounded=0;strokeColor=#f0f0f0;" parent="1" vertex="1">
                    <mxGeometry x="210" y="510" width="170" height="60" as="geometry"/>
                </mxCell>
                <mxCell id="35" value="" style="endArrow=classic;html=1;exitX=1;exitY=1;exitDx=0;exitDy=0;entryX=1;entryY=0.25;entryDx=0;entryDy=0;" parent="1" source="2" target="33" edge="1">
                    <mxGeometry width="50" height="50" relative="1" as="geometry">
                        <mxPoint x="650" y="420" as="sourcePoint"/>
                        <mxPoint x="700" y="370" as="targetPoint"/>
                        <Array as="points">
                            <mxPoint x="710" y="290"/>
                            <mxPoint x="710" y="525"/>
                        </Array>
                    </mxGeometry>
                </mxCell>
                <mxCell id="36" value="" style="endArrow=classic;html=1;exitX=0.75;exitY=0;exitDx=0;exitDy=0;entryX=0.75;entryY=1;entryDx=0;entryDy=0;" parent="1" source="33" target="3" edge="1">
                    <mxGeometry width="50" height="50" relative="1" as="geometry">
                        <mxPoint x="520" y="510" as="sourcePoint"/>
                        <mxPoint x="570" y="460" as="targetPoint"/>
                    </mxGeometry>
                </mxCell>
                <mxCell id="37" value=":Attaches" style="text;html=1;fillColor=none;align=center;verticalAlign=middle;whiteSpace=wrap;rounded=0;strokeColor=#f0f0f0;" parent="1" vertex="1">
                    <mxGeometry x="650" y="400" width="60" height="20" as="geometry"/>
                </mxCell>
                <mxCell id="38" value=":AttachmentsFrom" style="text;html=1;fillColor=none;align=center;verticalAlign=middle;whiteSpace=wrap;rounded=0;strokeColor=#f0f0f0;" parent="1" vertex="1">
                    <mxGeometry x="430" y="480" width="120" height="20" as="geometry"/>
                </mxCell>
                <mxCell id="39" value="" style="endArrow=classic;html=1;exitX=0;exitY=0.75;exitDx=0;exitDy=0;entryX=0.75;entryY=0;entryDx=0;entryDy=0;" parent="1" source="3" target="34" edge="1">
                    <mxGeometry width="50" height="50" relative="1" as="geometry">
                        <mxPoint x="250" y="480" as="sourcePoint"/>
                        <mxPoint x="300" y="430" as="targetPoint"/>
                    </mxGeometry>
                </mxCell>
                <mxCell id="40" value=":UserReactsTo&lt;br&gt;{EmojiID:STRING}" style="text;html=1;fillColor=none;align=center;verticalAlign=middle;whiteSpace=wrap;rounded=0;strokeColor=#f0f0f0;" parent="1" vertex="1">
                    <mxGeometry x="545" y="330" width="110" height="50" as="geometry"/>
                </mxCell>
                <mxCell id="41" value="" style="endArrow=classic;html=1;exitX=0.25;exitY=0;exitDx=0;exitDy=0;entryX=0;entryY=0.5;entryDx=0;entryDy=0;" parent="1" source="34" target="2" edge="1">
                    <mxGeometry width="50" height="50" relative="1" as="geometry">
                        <mxPoint x="230" y="490" as="sourcePoint"/>
                        <mxPoint x="280" y="440" as="targetPoint"/>
                        <Array as="points">
                            <mxPoint x="320" y="430"/>
                            <mxPoint x="320" y="320"/>
                        </Array>
                    </mxGeometry>
                </mxCell>
                <mxCell id="44" value=":ReactsWith" style="text;html=1;fillColor=none;align=center;verticalAlign=middle;whiteSpace=wrap;rounded=0;strokeColor=#f0f0f0;" parent="1" vertex="1">
                    <mxGeometry x="310" y="450" width="90" height="20" as="geometry"/>
                </mxCell>
            </root>
        </mxGraphModel>
    </diagram>
</mxfile>